# xmcd
#
# Track frame offsets:
#	150
#	20994
#	48320
#	67128
#	90148
#	115002
#	144325
#	173197
#	192166
#	217275
#	242160
#	282437
#	304307
#	336646
#
# Disc length: 4770 seconds
#
# Revision: 1
# Processed by: cddbd v1.4PL0 Copyright (c) Steve Scherf et al.
# Submitted via: EasyCDDAExtractor 6.2.0.3
#
DISCID=db12a00e
DTITLE=Eric Clapton - Ballads
DYEAR=2003
DGENRE=Ballad
TTITLE0=Tears In Heaven (Unplugged)
TTITLE1=Change The World (Live)
TTITLE2=Circus
TTITLE3=Miss You
TTITLE4=Just Like A Prisoner
TTITLE5=Badge (Live)
TTITLE6=Old Love
TTITLE7=Come Rain Or Come
TTITLE8=Running On Faith
TTITLE9=Pretty Girl
TTITLE10=Wonderful Tonight (Live)
TTITLE11=Over The Rainbow (Live)
TTITLE12=Layla (Live)
TTITLE13=Blue Eyes Blue
EXTD=
EXTT0=
EXTT1=
EXTT2=
EXTT3=
EXTT4=
EXTT5=
EXTT6=
EXTT7=
EXTT8=
EXTT9=
EXTT10=
EXTT11=
EXTT12=
EXTT13=
PLAYORDER=
